<svg width="19" height="37" viewBox="0 0 19 37" fill="none" xmlns="http://www.w3.org/2000/svg">
<path d="M18.4688 13.375V5.6875H15.9062V13.375C15.9062 15.074 15.2313 16.7035 14.0299 17.9049C12.8285 19.1063 11.199 19.7812 9.5 19.7812C7.80096 19.7812 6.1715 19.1063 4.9701 17.9049C3.76869 16.7035 3.09375 15.074 3.09375 13.375V3.125H10.2508L7.31291 6.06291C7.07271 6.30318 6.93777 6.62901 6.93777 6.96875C6.93777 7.30849 7.07271 7.63432 7.31291 7.87459L8.96956 9.53125L6.03166 12.4692L7.84334 14.2808L11.6871 10.4371C11.9273 10.1968 12.0622 9.87099 12.0622 9.53125C12.0622 9.19151 11.9273 8.86568 11.6871 8.62541L10.0304 6.96875L14.2496 2.74959C14.4287 2.57041 14.5507 2.34214 14.6001 2.09363C14.6495 1.84513 14.6242 1.58756 14.5272 1.35347C14.4303 1.11939 14.2661 0.919306 14.0554 0.778517C13.8448 0.637727 13.5971 0.562554 13.3438 0.5625H1.8125C1.47269 0.5625 1.1468 0.697488 0.90652 0.937769C0.666239 1.17805 0.53125 1.50394 0.53125 1.84375V13.375C0.535105 15.5295 1.31385 17.6107 2.72526 19.2385C4.13666 20.8664 6.08654 21.9321 8.21875 22.2413V33.875H1.8125V36.4375H17.1875V33.875H10.7812V22.2413C12.9135 21.9321 14.8633 20.8664 16.2747 19.2385C17.6861 17.6107 18.4649 15.5295 18.4688 13.375Z" fill="black"/>
</svg>
