<svg width="35" height="29" viewBox="0 0 35 29" fill="none" xmlns="http://www.w3.org/2000/svg">
<path fill-rule="evenodd" clip-rule="evenodd" d="M7.26979 0.916656C5.27188 0.916656 3.79458 2.6652 3.86167 4.55957C3.92438 6.38249 3.84271 8.74061 3.24917 10.6642C2.65125 12.5921 1.645 13.8142 0 13.9717V15.7435C1.645 15.8996 2.65271 17.1217 3.24771 19.051C3.84271 20.9746 3.92438 23.3327 3.86021 25.1542C3.79458 27.05 5.27188 28.7985 7.26979 28.7985H27.7331C29.731 28.7985 31.2083 27.05 31.1413 25.1542C31.0785 23.3327 31.1602 20.9746 31.7538 19.051C32.3502 17.1217 33.355 15.901 35 15.7435V13.9717C33.355 13.8142 32.3502 12.5921 31.7538 10.6642C31.1602 8.73916 31.0785 6.38103 31.1413 4.55957C31.2083 2.66374 29.7296 0.916656 27.7331 0.916656H7.26979ZM23.7271 18.0798C23.7271 20.6902 21.7802 22.2725 18.55 22.2725H13.0506C12.8932 22.2725 12.7422 22.21 12.6309 22.0986C12.5196 21.9873 12.4571 21.8364 12.4571 21.6789V8.03478C12.4575 7.87762 12.5202 7.72702 12.6314 7.61603C12.7427 7.50503 12.8935 7.4427 13.0506 7.4427H18.5194C21.2129 7.4427 22.9819 8.90103 22.9819 11.1425C22.9819 12.7146 21.7919 14.1219 20.2767 14.3698V14.4514C22.3402 14.6775 23.7285 16.1067 23.7285 18.0798H23.7271ZM17.9521 9.32249H14.8167V13.7529H17.4577C19.4994 13.7529 20.6252 12.9304 20.6252 11.4604C20.6252 10.0837 19.6569 9.32249 17.9521 9.32249ZM14.8167 15.5102V20.3912H18.0688C20.1935 20.3912 21.3208 19.5381 21.3208 17.9354C21.3208 16.3312 20.1629 15.5102 17.9317 15.5102H14.8167Z" fill="black"/>
</svg>
