<svg width="24" height="22" viewBox="0 0 24 22" fill="none" xmlns="http://www.w3.org/2000/svg">
<path d="M21.3885 17.0569L20.6817 16.3495L20.681 16.3501L21.3885 17.0569ZM21.3885 2.26913L20.681 2.97594L20.6817 2.97654L21.3885 2.26913ZM2.26913 2.26913L2.97594 2.97654L2.97654 2.97594L2.26913 2.26913ZM2.26913 17.0569L2.97678 16.3504L2.97594 16.3495L2.26913 17.0569ZM5.23429 19.2109C5.78396 19.2646 6.27308 18.8625 6.32678 18.3128C6.38048 17.7632 5.97842 17.2741 5.42875 17.2204L5.23429 19.2109ZM9.83521 19.566L9.37463 18.6784L9.37455 18.6784L9.83521 19.566ZM6.05705 20.8925L6.61525 20.0628L6.61408 20.062L6.05705 20.8925ZM5.82748 17.2064L6.82334 17.2973L6.82344 17.2961L5.82748 17.2064ZM6.86892 16.7915C6.9185 16.2415 6.51278 15.7554 5.96272 15.7058C5.41267 15.6562 4.92657 16.0619 4.87699 16.612L6.86892 16.7915ZM13.9946 19.3261C16.008 19.3261 17.6189 19.3282 18.8806 19.1585C20.171 18.9849 21.245 18.6153 22.0959 17.7637L20.681 16.3501C20.2638 16.7677 19.6826 17.0326 18.614 17.1764C17.5166 17.3239 16.0646 17.3261 13.9946 17.3261V19.3261ZM22.0953 17.7643C22.9468 16.9135 23.3165 15.8395 23.49 14.5491C23.6597 13.2874 23.6576 11.6765 23.6576 9.66304H21.6576C21.6576 11.7331 21.6555 13.1851 21.5079 14.2825C21.3641 15.3511 21.0992 15.9323 20.6817 16.3495L22.0953 17.7643ZM23.6576 9.66304C23.6576 7.64955 23.6597 6.03866 23.49 4.77698C23.3165 3.48655 22.9468 2.41258 22.0953 1.56173L20.6817 2.97654C21.0992 3.39374 21.3641 3.97495 21.5079 5.04357C21.6555 6.14095 21.6576 7.59299 21.6576 9.66304H23.6576ZM22.0959 1.56233C21.245 0.710748 20.171 0.341123 18.8806 0.167566C17.6189 -0.00212526 16.008 0 13.9946 0V2C16.0646 2 17.5166 2.00213 18.614 2.14972C19.6826 2.29344 20.2638 2.55839 20.681 2.97594L22.0959 1.56233ZM13.9946 0H9.66304V2H13.9946V0ZM9.66304 0C7.64955 0 6.03866 -0.00212526 4.77698 0.167566C3.48655 0.341123 2.41258 0.710748 1.56173 1.56233L2.97654 2.97594C3.39374 2.55839 3.97495 2.29344 5.04357 2.14972C6.14095 2.00213 7.59299 2 9.66304 2V0ZM1.56233 1.56173C0.710748 2.41258 0.341123 3.48655 0.167566 4.77698C-0.00212526 6.03866 0 7.64955 0 9.66304H2C2 7.59299 2.00213 6.14095 2.14972 5.04357C2.29344 3.97495 2.55839 3.39374 2.97594 2.97654L1.56233 1.56173ZM0 9.66304C0 11.6765 -0.00212526 13.2874 0.167566 14.5491C0.341123 15.8395 0.710748 16.9135 1.56233 17.7643L2.97594 16.3495C2.55839 15.9323 2.29344 15.3511 2.14972 14.2825C2.00213 13.1851 2 11.7331 2 9.66304H0ZM1.56149 17.7635C2.51114 18.7146 3.73843 19.0647 5.23429 19.2109L5.42875 17.2204C4.10912 17.0914 3.44137 16.8157 2.97678 16.3504L1.56149 17.7635ZM13.9946 17.3261C12.4166 17.3261 10.7704 17.9541 9.37463 18.6784L10.2958 20.4536C11.5921 19.7809 12.8956 19.3261 13.9946 19.3261V17.3261ZM9.37455 18.6784C8.26968 19.2518 7.51676 19.6411 6.97237 19.8527C6.70223 19.9576 6.54927 19.9917 6.47395 19.9988C6.41178 20.0046 6.49801 19.9839 6.61525 20.0628L5.49885 21.7222C5.88248 21.9803 6.30372 22.0237 6.66184 21.9899C7.00681 21.9574 7.35942 21.8479 7.69678 21.7169C8.36738 21.4563 9.23716 21.003 10.2959 20.4535L9.37455 18.6784ZM6.61408 20.062C6.80462 20.1898 6.68232 20.3217 6.66617 19.7206C6.65205 19.1948 6.71957 18.4343 6.82334 17.2973L4.83162 17.1155C4.73289 18.1973 4.64881 19.1012 4.66689 19.7743C4.68296 20.3723 4.7767 21.2378 5.50001 21.723L6.61408 20.062ZM6.82344 17.2961L6.86892 16.7915L4.87699 16.612L4.83151 17.1166L6.82344 17.2961Z" fill="black"/>
</svg>
