<svg width="25" height="36" viewBox="0 0 25 36" fill="none" xmlns="http://www.w3.org/2000/svg">
<path fill-rule="evenodd" clip-rule="evenodd" d="M7.27189 0.998779C3.70334 0.998779 0.833345 3.99274 0.833345 7.66045C0.833345 9.89024 1.89501 11.8707 3.52689 13.0796C2.68584 13.7097 2.00411 14.5281 1.53635 15.4692C1.0686 16.4103 0.827831 17.4479 0.833345 18.4988C0.833345 20.73 1.89501 22.709 3.52689 23.9179C2.68584 24.5481 2.00411 25.3665 1.53635 26.3076C1.0686 27.2486 0.827831 28.2862 0.833345 29.3371C0.833345 33.0048 3.70334 35.9988 7.27189 35.9988C10.839 35.9988 13.7104 33.0048 13.7104 29.3371V23.705C14.8382 24.6453 16.2598 25.1608 17.7281 25.1619C21.2967 25.1604 24.1667 22.1665 24.1667 18.4988C24.1725 17.4478 23.9319 16.4101 23.4641 15.469C22.9964 14.5279 22.3144 13.7095 21.4731 13.0796C22.3142 12.4495 22.9959 11.6311 23.4637 10.69C23.9314 9.74892 24.1722 8.71135 24.1667 7.66045C24.1667 3.99274 21.2967 0.998779 17.7281 0.998779H7.27189ZM3.25272 7.66045C3.25272 5.34024 5.06397 3.48232 7.27189 3.48232H11.2896V11.8386H7.27189C5.06397 11.8386 3.25272 9.9792 3.25272 7.66045ZM17.7281 11.8371H13.7104V3.48086H17.7281C19.9375 3.48086 21.7473 5.34024 21.7473 7.66045C21.7473 9.9792 19.9375 11.8371 17.7281 11.8371ZM3.25418 18.4988C3.25418 16.18 5.06543 14.3207 7.27334 14.3207H11.2911V22.6769H7.27189C5.06251 22.6769 3.25272 20.8175 3.25272 18.4988H3.25418ZM13.7104 18.4988C13.7104 16.18 15.5217 14.3207 17.7296 14.3207C19.939 14.3207 21.7488 16.1786 21.7488 18.4988C21.7488 20.8175 19.939 22.6769 17.7296 22.6769C15.5217 22.6769 13.7119 20.819 13.7119 18.4988H13.7104ZM3.25418 29.3371C3.25418 27.0184 5.06543 25.1604 7.27334 25.1604H11.2911V29.3371C11.2911 31.6573 9.48272 33.5152 7.27334 33.5152C5.06543 33.5152 3.25418 31.6573 3.25418 29.3371Z" fill="black"/>
</svg>
