<svg width="27" height="35" viewBox="0 0 27 35" fill="none" xmlns="http://www.w3.org/2000/svg">
<path d="M3.09524 0H4.70536V1.59077H6.17857V0H7.78869V4.81548H6.17857V3.20387H4.70536V4.81548H3.09673L3.09524 0ZM9.90476 1.59673H8.4881V0H12.933V1.59673H11.5149V4.81548H9.90476V1.59673ZM13.6384 0H15.317L16.3497 1.69196L17.381 0H19.0595V4.81548H17.4568V2.42857L16.3497 4.14137H16.3214L15.2128 2.43006V4.81548H13.6384V0ZM19.8601 0H21.4717V3.2247H23.7336V4.81696H19.8601V0Z" fill="black"/>
<path fill-rule="evenodd" clip-rule="evenodd" d="M3.04464 32.131L0 6.30506H26.7857L23.7396 32.128L13.378 35L3.04464 32.131ZM9.20089 17.994L8.9122 14.75H21.0327L21.3155 11.5833H5.45238L6.30655 21.1622H17.2842L16.9167 25.2693L13.3839 26.2247H13.381L9.85417 25.2723L9.62798 22.747H6.44643L6.88988 27.7202L13.378 29.5208L19.8765 27.7202L20.6682 18.8452L20.7455 17.9955H9.20089V17.994Z" fill="black"/>
</svg>
