<svg width="35" height="35" viewBox="0 0 35 35" fill="none" xmlns="http://www.w3.org/2000/svg">
<path fill-rule="evenodd" clip-rule="evenodd" d="M0 0H35V35H0V0ZM26.756 29.3417C25.1329 29.3417 24.2156 28.4958 23.5112 27.3438L20.8381 28.8969C21.8035 30.8044 23.7767 32.2598 26.8319 32.2598C29.9556 32.2598 32.2817 30.6381 32.2817 27.6763C32.2817 24.9302 30.7038 23.7096 27.9096 22.5094L27.0871 22.1579C25.6754 21.5454 25.0644 21.1473 25.0644 20.16C25.0644 19.3623 25.6769 18.7512 26.6394 18.7512C27.5829 18.7512 28.191 19.1494 28.7554 20.16L31.3163 18.5165C30.2327 16.6104 28.7306 15.8827 26.6394 15.8827C23.7023 15.8827 21.8225 17.761 21.8225 20.2285C21.8225 22.9046 23.3975 24.1719 25.7717 25.1825L26.5942 25.5354C28.0948 26.1917 28.9888 26.5913 28.9888 27.7185C28.9888 28.6606 28.1181 29.3417 26.756 29.3417ZM14.0102 29.3198C12.88 29.3198 12.409 28.5469 11.8927 27.6281L9.21521 29.2498C9.99104 30.8919 11.5165 32.254 14.1488 32.254C17.064 32.254 19.0604 30.7038 19.0604 27.2985V16.0694H15.7719V27.2548C15.7719 28.8983 15.0894 29.3198 14.0087 29.3198H14.0102Z" fill="black"/>
</svg>
