<svg width="33" height="36" viewBox="0 0 33 36" fill="none" xmlns="http://www.w3.org/2000/svg">
<path d="M16.5 35.9358C16.0013 35.9358 15.5375 35.806 15.1044 35.5815L10.6871 33.0469C10.0236 32.694 10.3561 32.5656 10.5559 32.5015C11.4513 32.2127 11.6175 32.1485 12.548 31.6338C12.6471 31.5696 12.7813 31.6017 12.8805 31.6658L16.2682 33.6244C16.3994 33.6885 16.5671 33.6885 16.6663 33.6244L29.9182 26.2102C30.0494 26.146 30.1165 26.0177 30.1165 25.8573V11.061C30.1165 10.9006 30.0509 10.7723 29.9182 10.7081L16.6663 3.32751C16.5336 3.26334 16.3673 3.26334 16.2682 3.32751L3.01629 10.7081C2.88358 10.7723 2.8165 10.9327 2.8165 11.061V25.8573C2.8165 25.9856 2.88358 26.146 3.01629 26.2102L6.63587 28.2329C8.59587 29.1954 9.82379 28.0725 9.82379 26.9496V12.3458C9.82379 12.1533 9.99004 11.9608 10.2234 11.9608H11.9165C12.1163 11.9608 12.3146 12.1213 12.3146 12.3458V26.9481C12.3146 29.4842 10.8869 30.96 8.39608 30.96C7.63192 30.96 7.034 30.96 5.34087 30.1579L1.854 28.2329C1.43383 28.0019 1.08295 27.6629 0.837609 27.2509C0.592265 26.8389 0.461346 26.3689 0.458374 25.8894V11.0931C0.458374 10.1306 0.989207 9.2323 1.854 8.75105L15.1059 1.33542C15.5373 1.11417 16.0152 0.998779 16.5 0.998779C16.9849 0.998779 17.4628 1.11417 17.8942 1.33542L31.1475 8.74959C32.0109 9.23084 32.5417 10.1292 32.5417 11.0917V25.8879C32.5417 26.8504 32.0109 27.7488 31.1475 28.2315L17.8942 35.6442C17.4542 35.8349 16.9796 35.9332 16.5 35.9329V35.9358ZM20.5848 25.761C14.7734 25.761 13.5775 23.1944 13.5775 21.0113C13.5775 20.8188 13.7438 20.6263 13.9757 20.6263H15.7023C15.9021 20.6263 16.0669 20.7546 16.0669 20.9471C16.3338 22.6475 17.098 23.4817 20.6184 23.4817C23.4082 23.4817 24.604 22.8721 24.604 21.4283C24.604 20.5942 24.2715 19.9846 19.9213 19.5675C16.3002 19.2131 14.0427 18.4446 14.0427 15.6519C14.0427 13.0517 16.3002 11.5102 20.0875 11.5102C24.3386 11.5102 26.4313 12.9233 26.6967 16.0048C26.6937 16.1091 26.6586 16.21 26.5961 16.2935C26.5305 16.3577 26.4313 16.4219 26.3307 16.4219H24.604C24.5201 16.4199 24.4392 16.3906 24.3734 16.3385C24.3076 16.2864 24.2606 16.2143 24.2394 16.1331C23.8398 14.3685 22.8102 13.7896 20.0875 13.7896C17.0309 13.7896 16.6663 14.8163 16.6663 15.5863C16.6663 16.5181 17.098 16.8069 21.2163 17.3202C25.3011 17.8335 27.2275 18.5715 27.2275 21.3306C27.194 24.1569 24.8038 25.761 20.5848 25.761Z" fill="black"/>
</svg>
