<svg width="33" height="36" viewBox="0 0 33 36" fill="none" xmlns="http://www.w3.org/2000/svg">
<path d="M16.5002 35.9358C16.0014 35.9358 15.5377 35.806 15.1045 35.5815L10.6872 33.0469C10.0237 32.694 10.3562 32.5656 10.556 32.5015C11.4514 32.2127 11.6177 32.1485 12.5481 31.6338C12.6472 31.5696 12.7814 31.6017 12.8806 31.6658L16.2683 33.6244C16.3995 33.6885 16.5672 33.6885 16.6664 33.6244L29.9183 26.2102C30.0495 26.146 30.1166 26.0177 30.1166 25.8573V11.061C30.1166 10.9006 30.051 10.7723 29.9183 10.7081L16.6664 3.32751C16.5337 3.26334 16.3675 3.26334 16.2683 3.32751L3.01641 10.7081C2.8837 10.7723 2.81662 10.9327 2.81662 11.061V25.8573C2.81662 25.9856 2.8837 26.146 3.01641 26.2102L6.636 28.2329C8.596 29.1954 9.82391 28.0725 9.82391 26.9496V12.3458C9.82391 12.1533 9.99016 11.9608 10.2235 11.9608H11.9166C12.1164 11.9608 12.3147 12.1213 12.3147 12.3458V26.9481C12.3147 29.4842 10.887 30.96 8.3962 30.96C7.63204 30.96 7.03412 30.96 5.341 30.1579L1.85412 28.2329C1.43395 28.0019 1.08308 27.6629 0.837731 27.2509C0.592387 26.8389 0.461468 26.3689 0.458496 25.8894V11.0931C0.458496 10.1306 0.989329 9.2323 1.85412 8.75105L15.106 1.33542C15.5374 1.11417 16.0153 0.998779 16.5002 0.998779C16.985 0.998779 17.4629 1.11417 17.8943 1.33542L31.1477 8.74959C32.011 9.23084 32.5418 10.1292 32.5418 11.0917V25.8879C32.5418 26.8504 32.011 27.7488 31.1477 28.2315L17.8943 35.6442C17.4543 35.8349 16.9798 35.9332 16.5002 35.9329V35.9358ZM20.585 25.761C14.7735 25.761 13.5777 23.1944 13.5777 21.0113C13.5777 20.8188 13.7439 20.6263 13.9758 20.6263H15.7025C15.9022 20.6263 16.067 20.7546 16.067 20.9471C16.3339 22.6475 17.0981 23.4817 20.6185 23.4817C23.4083 23.4817 24.6041 22.8721 24.6041 21.4283C24.6041 20.5942 24.2716 19.9846 19.9214 19.5675C16.3004 19.2131 14.0429 18.4446 14.0429 15.6519C14.0429 13.0517 16.3004 11.5102 20.0877 11.5102C24.3387 11.5102 26.4314 12.9233 26.6968 16.0048C26.6939 16.1091 26.6587 16.21 26.5962 16.2935C26.5306 16.3577 26.4314 16.4219 26.3308 16.4219H24.6041C24.5202 16.4199 24.4393 16.3906 24.3735 16.3385C24.3078 16.2864 24.2607 16.2143 24.2395 16.1331C23.84 14.3685 22.8104 13.7896 20.0877 13.7896C17.031 13.7896 16.6664 14.8163 16.6664 15.5863C16.6664 16.5181 17.0981 16.8069 21.2164 17.3202C25.3012 17.8335 27.2277 18.5715 27.2277 21.3306C27.1941 24.1569 24.8039 25.761 20.585 25.761Z" fill="black"/>
</svg>
