<svg width="35" height="32" viewBox="0 0 35 32" fill="none" xmlns="http://www.w3.org/2000/svg">
<path d="M35 16.0465C35 13.7277 32.0965 11.53 27.6442 10.1679C28.6723 5.63105 28.2158 2.02022 26.2033 0.86376C25.7157 0.590644 25.1638 0.45317 24.605 0.465635V2.05522C24.9331 2.05522 25.1971 2.12084 25.4188 2.24189C26.3885 2.79897 26.81 4.91647 26.4819 7.64209C26.4031 8.31293 26.2748 9.01876 26.1173 9.73918C24.6263 9.3799 23.1131 9.12023 21.5877 8.96189C20.679 7.70814 19.6875 6.51646 18.62 5.3948C20.946 3.23355 23.1292 2.04939 24.6138 2.04939V0.458344C22.6508 0.458344 20.0827 1.85689 17.4854 4.28209C14.8896 1.87293 12.32 0.48751 10.3585 0.48751V2.07709C11.8358 2.07709 14.0263 3.25543 16.3523 5.40209C15.3533 6.45209 14.3544 7.64209 13.405 8.96189C11.8764 9.11847 10.3605 9.38062 8.86812 9.74647C8.7104 9.06366 8.5863 8.37353 8.49625 7.67855C8.16083 4.95147 8.575 2.83397 9.53896 2.27105C9.75187 2.14272 10.0304 2.08439 10.3585 2.08439V0.494802C9.76063 0.494802 9.21667 0.623135 8.74708 0.892927C6.74188 2.04939 6.29271 5.65147 7.32667 10.1752C2.88896 11.5461 0 13.735 0 16.0465C0 18.3652 2.90354 20.5629 7.35583 21.9236C6.32771 26.4619 6.78417 30.0727 8.79667 31.2277C9.26042 31.499 9.80292 31.6273 10.4008 31.6273C12.3637 31.6273 14.9319 30.2288 17.5292 27.8036C20.125 30.2142 22.6931 31.5981 24.656 31.5981C25.2191 31.61 25.7752 31.4721 26.2675 31.1986C28.2727 30.0436 28.7219 26.4415 27.6879 21.9177C32.111 20.5556 35 18.3579 35 16.0465ZM25.7104 11.2879C25.4333 12.2415 25.1121 13.1816 24.7479 14.1054C24.1517 12.9457 23.497 11.817 22.7865 10.7236C23.8 10.8738 24.7771 11.059 25.7119 11.2879H25.7104ZM22.4438 18.8858C21.9096 19.8184 21.336 20.7278 20.7244 21.6115C18.5839 21.8001 16.4311 21.8026 14.2902 21.6188C13.0622 19.8646 11.9883 18.0076 11.0804 16.0683C11.9869 14.1245 13.0563 12.2609 14.2771 10.4975C16.417 10.3085 18.5693 10.3055 20.7098 10.4888C21.3019 11.3375 21.8808 12.2446 22.4365 13.2013C22.979 14.1346 23.4719 15.0825 23.921 16.0392C23.4669 17.0074 22.9741 17.9571 22.4438 18.8858ZM24.7479 17.9583C25.1329 18.9136 25.4625 19.8702 25.7323 20.7977C24.799 21.0267 23.8131 21.2192 22.7938 21.3679C23.5014 20.2646 24.1536 19.1266 24.7479 17.9583ZM17.5146 25.5708C16.851 24.8854 16.1875 24.1227 15.5312 23.2871C16.1729 23.3163 16.8292 23.3381 17.4927 23.3381C18.1635 23.3381 18.8271 23.3236 19.476 23.2871C18.8344 24.1227 18.1708 24.8854 17.5146 25.5708ZM12.2063 21.3679C11.223 21.2255 10.2468 21.0376 9.28083 20.805C9.54479 19.8848 9.87292 18.9354 10.2433 17.9875C10.5365 18.5563 10.8442 19.1279 11.1796 19.6996C11.515 20.2698 11.8562 20.8269 12.2063 21.3679ZM17.4781 6.52209C18.1417 7.20751 18.8052 7.97022 19.4615 8.80584C18.8198 8.77668 18.1635 8.7548 17.5 8.7548C16.8292 8.7548 16.1656 8.76939 15.5167 8.80584C16.1583 7.97022 16.8219 7.20751 17.4781 6.52209ZM12.199 10.725C11.4915 11.826 10.8393 12.9615 10.2448 14.1273C9.87031 13.1976 9.54179 12.25 9.26042 11.2879C10.1938 11.0663 11.1796 10.8738 12.199 10.725ZM5.74292 19.6558C3.21708 18.5796 1.58375 17.1665 1.58375 16.0465C1.58375 14.9265 3.21708 13.5061 5.74292 12.4371C6.35542 12.1731 7.02625 11.9369 7.71896 11.7167C8.12583 13.1138 8.66104 14.5692 9.32313 16.0611C8.69803 17.4642 8.16938 18.9084 7.74083 20.3836C7.06337 20.1738 6.39659 19.9309 5.74292 19.6558ZM9.58125 29.8496C8.61146 29.2954 8.19 27.175 8.51813 24.4508C8.59688 23.78 8.72521 23.0727 8.88271 22.3523C10.2798 22.695 11.8067 22.959 13.4123 23.1311C14.3211 24.3848 15.3125 25.5764 16.38 26.6981C14.054 28.8594 11.8708 30.0436 10.3863 30.0436C10.1062 30.0466 9.82965 29.9805 9.58125 29.8511V29.8496ZM26.5037 24.4144C26.8392 27.14 26.425 29.259 25.461 29.8219C25.2481 29.9502 24.9696 30.0071 24.6415 30.0071C23.1642 30.0071 20.9738 28.8302 18.6477 26.6821C19.7107 25.5651 20.6955 24.3762 21.595 23.1238C23.1236 22.9672 24.6395 22.705 26.1319 22.3392C26.2967 23.0596 26.4235 23.7508 26.5037 24.4144ZM29.2498 19.6558C28.6373 19.9198 27.9665 20.1561 27.2738 20.3763C26.8377 18.8936 26.3017 17.4422 25.6696 16.0319C26.3258 14.5488 26.8523 13.1006 27.2519 11.7094C27.9315 11.9198 28.6007 12.1627 29.2571 12.4371C31.7829 13.5133 33.4163 14.9265 33.4163 16.0465C33.409 17.1665 31.7756 18.5869 29.2498 19.6558Z" fill="black"/>
<path d="M17.4927 19.3073C18.3575 19.3073 19.1869 18.9638 19.7985 18.3522C20.41 17.7407 20.7535 16.9113 20.7535 16.0465C20.7535 15.1816 20.41 14.3522 19.7985 13.7407C19.1869 13.1292 18.3575 12.7856 17.4927 12.7856C16.6279 12.7856 15.7985 13.1292 15.187 13.7407C14.5754 14.3522 14.2319 15.1816 14.2319 16.0465C14.2319 16.9113 14.5754 17.7407 15.187 18.3522C15.7985 18.9638 16.6279 19.3073 17.4927 19.3073Z" fill="black"/>
</svg>
