<svg width="35" height="35" viewBox="0 0 35 35" fill="none" xmlns="http://www.w3.org/2000/svg">
<path d="M17.5 0C27.125 0 35 7.875 35 17.5C35 27.125 27.125 35 17.5 35C7.875 35 0 27.125 0 17.5C0 7.875 7.875 0 17.5 0ZM14 23.2969C14.2188 24.2813 14.2188 25.1562 14 25.9219L13.8906 26.25C13.8906 26.3594 13.7812 26.4688 13.7812 26.4688C13.5625 26.9062 13.3438 27.2344 13.0156 27.6719C12.0313 28.7656 10.6094 29.2031 9.95312 28.875C9.29688 28.5469 9.625 26.9062 10.8281 25.7031C12.1406 24.3906 13.8906 23.5156 13.8906 23.5156L14 23.2969ZM28.4375 7.4375C27.6719 4.375 22.5312 3.28125 17.6094 5.03125C14.7656 6.125 11.5938 7.76563 9.29688 9.84375C6.5625 12.3594 6.23438 14.5469 6.34375 15.4219C7 18.5938 11.375 20.7812 13.2344 22.3125C12.6875 22.5312 8.75 24.5 7.875 26.5781C6.89063 28.7656 7.98438 30.2969 8.75 30.4063C11.0469 31.0625 13.4531 29.8594 14.6563 28C15.8594 26.1406 15.75 23.8438 15.2031 22.6406C16.054 22.3779 16.9584 22.3402 17.8281 22.5312C20.8906 22.8594 21.5469 24.8281 21.3281 25.5938C21.1094 26.3594 20.5625 26.7969 20.3438 27.0156C20.125 27.125 20.0156 27.2344 20.125 27.2344C20.125 27.3438 20.2344 27.3438 20.4531 27.3438C20.6719 27.3438 22.0938 26.6875 22.0938 25.1562C22.2031 23.2969 20.3438 21.2188 17.1719 21.2188C15.8594 21.2188 14.9844 21.3281 14.4375 21.5469C14.4375 21.4375 14.3281 21.4375 14.3281 21.4375C12.3594 19.3594 8.75 17.8281 8.85938 14.9844C8.85938 14 9.29688 11.2656 15.8594 7.98438C21.2188 5.25 25.5938 6.01562 26.3594 7.65625C27.4531 9.95312 24.0625 14.3281 18.4844 14.9844C16.2969 15.2031 15.2031 14.4375 14.9844 14.1094C14.6562 13.7813 14.6563 13.7812 14.5469 13.7812C14.3281 13.8906 14.4375 14.1094 14.5469 14.3281C14.7656 14.7656 15.4219 15.5312 16.625 15.9688C17.6094 16.2969 20.125 16.5156 23.1875 15.3125C26.5781 14 29.2031 10.3906 28.4375 7.32813V7.4375Z" fill="black"/>
</svg>
