<svg width="37" height="37" viewBox="0 0 37 37" fill="none" xmlns="http://www.w3.org/2000/svg">
<path d="M33.875 19.7812V26.1875H3.125V5.6875H15.9375V3.125H3.125C2.44538 3.125 1.7936 3.39498 1.31304 3.87554C0.832477 4.3561 0.5625 5.00788 0.5625 5.6875V26.1875C0.5625 26.8671 0.832477 27.5189 1.31304 27.9995C1.7936 28.48 2.44538 28.75 3.125 28.75H13.375V33.875H8.25V36.4375H28.75V33.875H23.625V28.75H33.875C34.5546 28.75 35.2064 28.48 35.687 27.9995C36.1675 27.5189 36.4375 26.8671 36.4375 26.1875V19.7812H33.875ZM21.0625 33.875H15.9375V28.75H21.0625V33.875Z" fill="black"/>
<path d="M36.4375 10.8125V8.25H33.7456C33.5804 7.44796 33.2619 6.68535 32.8077 6.00397L34.7168 4.09491L32.9051 2.28322L30.996 4.19228C30.3147 3.73809 29.552 3.41965 28.75 3.25441V0.5625H26.1875V3.25441C25.3855 3.41965 24.6228 3.73809 23.9415 4.19228L22.0324 2.28322L20.2207 4.09491L22.1298 6.00397C21.6756 6.68535 21.3571 7.44796 21.1919 8.25H18.5V10.8125H21.1919C21.3571 11.6145 21.6756 12.3772 22.1298 13.0585L20.2207 14.9676L22.0324 16.7793L23.9415 14.8702C24.6228 15.3244 25.3855 15.6429 26.1875 15.8081V18.5H28.75V15.8081C29.552 15.6429 30.3147 15.3244 30.996 14.8702L32.9051 16.7793L34.7168 14.9676L32.8077 13.0585C33.2619 12.3772 33.5804 11.6145 33.7456 10.8125H36.4375ZM27.4688 13.375C26.7085 13.375 25.9654 13.1496 25.3333 12.7272C24.7012 12.3049 24.2085 11.7045 23.9176 11.0022C23.6267 10.2998 23.5505 9.52699 23.6989 8.78137C23.8472 8.03576 24.2133 7.35087 24.7508 6.81331C25.2884 6.27575 25.9733 5.90967 26.7189 5.76136C27.4645 5.61304 28.2373 5.68916 28.9397 5.98009C29.642 6.27101 30.2424 6.76368 30.6647 7.39578C31.0871 8.02788 31.3125 8.77103 31.3125 9.53125C31.3115 10.5504 30.9062 11.5274 30.1856 12.2481C29.4649 12.9687 28.4879 13.374 27.4688 13.375Z" fill="black"/>
</svg>
