<svg width="19" height="21" viewBox="0 0 19 21" fill="none" xmlns="http://www.w3.org/2000/svg">
<path d="M15.3497 13.1641C14.8032 13.1669 14.2643 13.2923 13.7728 13.5311C13.2813 13.7699 12.8496 14.116 12.5097 14.544L7.17295 11.2076C7.36745 10.5798 7.36745 9.90792 7.17295 9.28019L12.5097 5.94379C13.0514 6.61451 13.813 7.07187 14.6596 7.23484C15.5062 7.39781 16.3831 7.25589 17.1351 6.83419C17.887 6.4125 18.4655 5.73827 18.7679 4.93093C19.0704 4.12359 19.0773 3.23526 18.7875 2.42329C18.4977 1.61133 17.9299 0.928141 17.1846 0.494753C16.4393 0.0613656 15.5647 -0.0942483 14.7157 0.0554778C13.8666 0.205204 13.098 0.650606 12.5459 1.31278C11.9938 1.97496 11.6939 2.81117 11.6994 3.67329C11.7028 3.99976 11.7519 4.32414 11.8454 4.63697L6.50859 7.97337C6.03744 7.38025 5.39344 6.94839 4.66587 6.73766C3.9383 6.52692 3.16319 6.54775 2.44798 6.79725C1.73277 7.04674 1.11289 7.51256 0.674268 8.13012C0.235644 8.74768 0 9.48639 0 10.2439C0 11.0013 0.235644 11.7401 0.674268 12.3576C1.11289 12.9752 1.73277 13.441 2.44798 13.6905C3.16319 13.94 3.9383 13.9608 4.66587 13.7501C5.39344 13.5393 6.03744 13.1075 6.50859 12.5144L11.8454 15.8508C11.7519 16.1636 11.7028 16.488 11.6994 16.8145C11.6994 17.5364 11.9134 18.2422 12.3145 18.8425C12.7156 19.4428 13.2857 19.9106 13.9528 20.1869C14.6198 20.4632 15.3537 20.5355 16.0618 20.3946C16.7699 20.2538 17.4203 19.9061 17.9308 19.3956C18.4413 18.8851 18.789 18.2347 18.9299 17.5266C19.0707 16.8185 18.9984 16.0845 18.7221 15.4175C18.4458 14.7505 17.978 14.1804 17.3777 13.7793C16.7774 13.3782 16.0716 13.1641 15.3497 13.1641ZM15.3497 1.48309C15.7829 1.48309 16.2063 1.61155 16.5665 1.85221C16.9267 2.09287 17.2074 2.43493 17.3731 2.83514C17.5389 3.23534 17.5823 3.67572 17.4978 4.10057C17.4133 4.52543 17.2047 4.91569 16.8984 5.22199C16.5921 5.52829 16.2018 5.73689 15.777 5.8214C15.3521 5.90591 14.9117 5.86253 14.5115 5.69676C14.1113 5.53099 13.7693 5.25027 13.5286 4.89009C13.2879 4.52992 13.1595 4.10647 13.1595 3.67329C13.1595 3.09241 13.3902 2.53533 13.801 2.12459C14.2117 1.71385 14.7688 1.48309 15.3497 1.48309ZM3.66864 12.4341C3.23546 12.4341 2.81201 12.3056 2.45183 12.065C2.09166 11.8243 1.81093 11.4822 1.64516 11.082C1.47939 10.6818 1.43602 10.2414 1.52053 9.81659C1.60504 9.39173 1.81363 9.00147 2.11994 8.69517C2.42624 8.38887 2.8165 8.18027 3.24135 8.09576C3.66621 8.01125 4.10658 8.05462 4.50679 8.2204C4.907 8.38617 5.24906 8.66689 5.48972 9.02706C5.73038 9.38724 5.85883 9.81069 5.85883 10.2439C5.85883 10.8247 5.62808 11.3818 5.21734 11.7926C4.8066 12.2033 4.24951 12.4341 3.66864 12.4341ZM15.3497 19.0047C14.9165 19.0047 14.493 18.8762 14.1329 18.6355C13.7727 18.3949 13.492 18.0528 13.3262 17.6526C13.1604 17.2524 13.1171 16.812 13.2016 16.3872C13.2861 15.9623 13.4947 15.5721 13.801 15.2658C14.1073 14.9594 14.4975 14.7509 14.9224 14.6663C15.3472 14.5818 15.7876 14.6252 16.1878 14.791C16.588 14.9567 16.9301 15.2375 17.1708 15.5976C17.4114 15.9578 17.5399 16.3813 17.5399 16.8145C17.5399 17.3953 17.3091 17.9524 16.8984 18.3632C16.4876 18.7739 15.9306 19.0047 15.3497 19.0047Z" fill="black"/>
<path d="M15.3497 13.1641C14.8032 13.1669 14.2643 13.2923 13.7728 13.5311C13.2813 13.7699 12.8496 14.116 12.5097 14.544L7.17295 11.2076C7.36745 10.5798 7.36745 9.90792 7.17295 9.28019L12.5097 5.94379C13.0514 6.61451 13.813 7.07187 14.6596 7.23484C15.5062 7.39781 16.3831 7.25589 17.1351 6.83419C17.887 6.4125 18.4655 5.73827 18.7679 4.93093C19.0704 4.12359 19.0773 3.23526 18.7875 2.42329C18.4977 1.61133 17.9299 0.928141 17.1846 0.494753C16.4393 0.0613656 15.5647 -0.0942483 14.7157 0.0554778C13.8666 0.205204 13.098 0.650606 12.5459 1.31278C11.9938 1.97496 11.6939 2.81117 11.6994 3.67329C11.7028 3.99976 11.7519 4.32414 11.8454 4.63697L6.50859 7.97337C6.03744 7.38025 5.39344 6.94839 4.66587 6.73766C3.9383 6.52692 3.16319 6.54775 2.44798 6.79725C1.73277 7.04674 1.11289 7.51256 0.674268 8.13012C0.235644 8.74768 0 9.48639 0 10.2439C0 11.0013 0.235644 11.7401 0.674268 12.3576C1.11289 12.9752 1.73277 13.441 2.44798 13.6905C3.16319 13.94 3.9383 13.9608 4.66587 13.7501C5.39344 13.5393 6.03744 13.1075 6.50859 12.5144L11.8454 15.8508C11.7519 16.1636 11.7028 16.488 11.6994 16.8145C11.6994 17.5364 11.9134 18.2422 12.3145 18.8425C12.7156 19.4428 13.2857 19.9106 13.9528 20.1869C14.6198 20.4632 15.3537 20.5355 16.0618 20.3946C16.7699 20.2538 17.4203 19.9061 17.9308 19.3956C18.4413 18.8851 18.789 18.2347 18.9299 17.5266C19.0707 16.8185 18.9984 16.0845 18.7221 15.4175C18.4458 14.7505 17.978 14.1804 17.3777 13.7793C16.7774 13.3782 16.0716 13.1641 15.3497 13.1641ZM15.3497 1.48309C15.7829 1.48309 16.2063 1.61155 16.5665 1.85221C16.9267 2.09287 17.2074 2.43493 17.3731 2.83514C17.5389 3.23534 17.5823 3.67572 17.4978 4.10057C17.4133 4.52543 17.2047 4.91569 16.8984 5.22199C16.5921 5.52829 16.2018 5.73689 15.777 5.8214C15.3521 5.90591 14.9117 5.86253 14.5115 5.69676C14.1113 5.53099 13.7693 5.25027 13.5286 4.89009C13.2879 4.52992 13.1595 4.10647 13.1595 3.67329C13.1595 3.09241 13.3902 2.53533 13.801 2.12459C14.2117 1.71385 14.7688 1.48309 15.3497 1.48309ZM3.66864 12.4341C3.23546 12.4341 2.81201 12.3056 2.45183 12.065C2.09166 11.8243 1.81093 11.4822 1.64516 11.082C1.47939 10.6818 1.43602 10.2414 1.52053 9.81659C1.60504 9.39173 1.81363 9.00147 2.11994 8.69517C2.42624 8.38887 2.8165 8.18027 3.24135 8.09576C3.66621 8.01125 4.10658 8.05462 4.50679 8.2204C4.907 8.38617 5.24906 8.66689 5.48972 9.02706C5.73038 9.38724 5.85883 9.81069 5.85883 10.2439C5.85883 10.8247 5.62808 11.3818 5.21734 11.7926C4.8066 12.2033 4.24951 12.4341 3.66864 12.4341ZM15.3497 19.0047C14.9165 19.0047 14.493 18.8762 14.1329 18.6355C13.7727 18.3949 13.492 18.0528 13.3262 17.6526C13.1604 17.2524 13.1171 16.812 13.2016 16.3872C13.2861 15.9623 13.4947 15.5721 13.801 15.2658C14.1073 14.9594 14.4975 14.7509 14.9224 14.6663C15.3472 14.5818 15.7876 14.6252 16.1878 14.791C16.588 14.9567 16.9301 15.2375 17.1708 15.5976C17.4114 15.9578 17.5399 16.3813 17.5399 16.8145C17.5399 17.3953 17.3091 17.9524 16.8984 18.3632C16.4876 18.7739 15.9306 19.0047 15.3497 19.0047Z" stroke="black"/>
</svg>
