<svg width="36" height="31" viewBox="0 0 36 31" fill="none" xmlns="http://www.w3.org/2000/svg">
<path d="M9.50127 14.8874C8.54834 14.8874 7.8917 14.467 7.83564 13.8104H5.64551C5.68154 15.548 7.12295 16.6251 9.40518 16.6251C11.7715 16.6251 13.2089 15.488 13.2089 13.6021C13.2089 12.1687 12.4081 11.364 10.6264 11.0196L9.46123 10.7954C8.5083 10.6072 8.10791 10.3189 8.10791 9.82646C8.10791 9.22588 8.64043 8.84551 9.44521 8.84551C10.25 8.84551 10.8586 9.28994 10.9106 9.92656H13.0327C12.9967 8.25693 11.5312 7.11182 9.41719 7.11182C7.23906 7.11182 5.82568 8.26895 5.82568 10.0347C5.82568 11.4561 6.67451 12.3569 8.32812 12.6692L9.51729 12.9055C10.5503 13.1137 10.9427 13.3819 10.9427 13.8824C10.9467 14.471 10.3621 14.8874 9.50127 14.8874Z" fill="black"/>
<path d="M34.5938 0.605469H1.28125C0.572559 0.605469 0 1.17803 0 1.88672V21.7461C0 22.4548 0.572559 23.0273 1.28125 23.0273H16.4961V27.5117H9.60938C9.25703 27.5117 8.96875 27.8 8.96875 28.1523V30.0742C8.96875 30.2504 9.11289 30.3945 9.28906 30.3945H26.5859C26.7621 30.3945 26.9062 30.2504 26.9062 30.0742V28.1523C26.9062 27.8 26.618 27.5117 26.2656 27.5117H19.3789V23.0273H34.5938C35.3024 23.0273 35.875 22.4548 35.875 21.7461V1.88672C35.875 1.17803 35.3024 0.605469 34.5938 0.605469ZM32.9922 20.1445H2.88281V3.48828H32.9922V20.1445Z" fill="black"/>
<path d="M30.6098 14.487H26.7741V7.35205H24.4759V16.3809H30.6098V14.487ZM18.6542 16.6251C19.2187 16.6251 19.7432 16.545 20.2197 16.3929L20.7522 17.2057H22.8863L21.7772 15.46C22.622 14.6592 23.0985 13.414 23.0985 11.8645C23.0985 8.92959 21.3648 7.10781 18.6582 7.10781C15.9515 7.10781 14.2058 8.92158 14.2058 11.8645C14.2018 14.8153 15.9275 16.6251 18.6542 16.6251ZM18.6542 9.01767C19.9194 9.01767 20.7642 10.1268 20.7642 11.8645C20.7642 12.5331 20.6201 13.0896 20.3638 13.486L20.1556 13.2098H18.2017L19.1386 14.6592C18.9825 14.6952 18.8183 14.7152 18.6502 14.7152C17.3809 14.7152 16.5361 13.6142 16.5361 11.8645C16.5401 10.1187 17.3849 9.01767 18.6542 9.01767Z" fill="black"/>
</svg>
